<svg width="26" height="26" viewBox="0 0 26 26" fill="none" xmlns="http://www.w3.org/2000/svg">
<path d="M25.28 10.783H24.268V10.731H13V15.739H20.08C19.5457 17.2594 18.5371 18.5678 17.2028 19.4715C15.8685 20.3751 14.2791 20.8261 12.6691 20.7579C11.059 20.6898 9.51349 20.1061 8.26035 19.0929C7.0072 18.0797 6.11278 16.6906 5.70897 15.1306C5.30515 13.5705 5.41331 11.9219 6.0175 10.428C6.62168 8.93404 7.68992 7.67377 9.0647 6.833C10.4395 5.99223 12.048 5.61545 13.6532 5.75823C15.2584 5.90101 16.7752 6.55579 17.98 7.62601L21.521 4.08501C19.414 2.13002 16.698 0.96038 13.8299 0.772871C10.9618 0.585362 8.11662 1.39143 5.77307 3.05546C3.42952 4.71949 1.73063 7.13992 0.962212 9.90953C0.193798 12.6791 0.402761 15.6289 1.55395 18.2625C2.70513 20.8961 4.72828 23.0529 7.28301 24.3699C9.83774 25.687 12.7681 26.0839 15.5812 25.4939C18.3942 24.904 20.9182 23.3631 22.7285 21.1306C24.5388 18.8981 25.5249 16.1102 25.521 13.236C25.5209 12.4124 25.4402 11.5908 25.28 10.783Z" fill="#FFC107"/>
<path d="M1.92395 7.40802L6.03795 10.425C6.48714 9.30874 7.19832 8.31692 8.11145 7.5333C9.02457 6.74969 10.1128 6.19727 11.2844 5.9227C12.4559 5.64814 13.6763 5.65947 14.8425 5.95576C16.0087 6.25204 17.0865 6.82458 17.985 7.62502L21.526 4.08402C20.1201 2.77085 18.4302 1.79987 16.5877 1.24669C14.7452 0.693513 12.7999 0.573064 10.9032 0.894723C9.00655 1.21638 7.20972 1.97147 5.65263 3.10118C4.09555 4.2309 2.82022 5.70477 1.92595 7.40802H1.92395Z" fill="#FF3D00"/>
<path d="M13 25.7551C16.1052 25.7553 19.0986 24.5963 21.394 22.5051L17.519 19.2261C16.5809 19.9369 15.4885 20.4167 14.3304 20.6267C13.1722 20.8366 11.9809 20.7708 10.853 20.4345C9.72506 20.0982 8.6922 19.501 7.83811 18.6911C6.98402 17.8812 6.33273 16.8816 5.937 15.7731L1.854 18.9191C2.90063 20.9757 4.49571 22.7027 6.46282 23.9092C8.42993 25.1156 10.6924 25.7545 13 25.7551Z" fill="#4CAF50"/>
<path d="M25.277 10.7831H24.268V10.7311H13V15.7391H20.076C19.5829 17.1283 18.6931 18.3424 17.517 19.2311L21.392 22.5101C22.7108 21.3545 23.7629 19.9262 24.4756 18.3242C25.1883 16.7221 25.5447 14.9844 25.52 13.2311C25.519 12.4091 25.4376 11.5892 25.277 10.7831Z" fill="#1976D2"/>
</svg>
